<svg width="271" height="251" viewBox="0 0 271 251" fill="none" xmlns="http://www.w3.org/2000/svg">
<path d="M102.867 237.856C88.4137 242.987 73.82 245.358 58.2536 242.395C40.9032 239.09 25.8541 224.213 17.3508 209.377C14.1914 203.866 11.6762 197.708 12.0048 191.363C12.7696 176.704 26.5909 175.066 38.323 177.437C44.9364 178.77 51.0089 181.805 57.0126 184.811C66.9799 189.805 78.6719 192.261 87.6079 199.184C90.6064 201.513 92.8583 204.312 96.3426 206.007C101.763 208.645 107.95 209.891 113.516 212.292C118.269 214.352 123.582 217.742 123.589 222.928C123.59 228.248 118.051 231.637 113.185 233.755C109.74 235.264 106.31 236.639 102.867 237.856Z" fill="url(#paint0_linear)"/>
<path d="M49.6675 48.7757C73.3448 13.814 122.305 -0.223745 161.99 12.9211C181.127 19.2629 197.165 32.4684 211.957 46.1768C224.996 58.259 237.645 71.2906 246.55 86.8229C252.63 97.425 256.981 110.134 260.054 121.998C264.649 139.764 260.476 162.654 237.557 160.976C232.179 160.584 227.527 158.646 222.498 156.951C218.43 155.577 214.443 156.401 210.219 155.73C199.588 154.043 189.346 150.121 179.661 145.528C159.925 136.158 141.89 123.427 121.592 115.216C104.958 108.496 87.194 105.026 69.2584 104.994C61.6918 104.982 53.7358 105.513 46.9673 102.123C30.2847 93.7595 37.7867 71.2086 44.0171 58.5229C45.6677 55.1438 47.556 51.8865 49.6675 48.7757V48.7757Z" fill="url(#paint1_linear)"/>
<path d="M235.309 54.0528C239.207 57.5903 254.522 67.2473 254.817 55.9147C254.887 53.0915 253.609 50.3503 251.87 48.2827C249.88 45.9096 247.624 44.6648 246.07 41.9C244.168 38.5617 242.004 35.4242 239.605 32.5282C234.7 26.5003 228.974 20.9308 222.025 18.4493C217.152 16.7109 208.901 17.1481 206.586 23.4062C203.214 32.5162 217.634 34.1855 222.032 37.5055C226.206 40.648 228.569 46.0477 231.876 50.339C232.92 51.6922 234.07 52.9354 235.309 54.0528V54.0528Z" fill="url(#paint2_linear)"/>
<path d="M163.229 42.9719C171.485 47.8425 177.679 55.1331 185.207 61.0047C197.74 70.7787 214.918 72.7783 229.291 79.5755C243.946 86.5107 255.012 97.2886 260.015 112.823C266.479 132.873 267.093 156.718 261.601 177.332C255.554 200.022 241.351 215.094 220.586 225.146C199.833 235.191 176.842 239.879 153.913 240.846C151.7 240.942 149.491 240.993 147.273 241.007C97.46 241.297 31.1557 223.729 14.1964 170.112C14.0409 169.622 13.8919 169.132 13.7425 168.636C11.995 162.662 10.9675 156.5 10.682 150.282C9.61528 128.238 13.4659 103.906 21.1794 83.2404C26.3675 69.3275 37.539 57.5635 49.3108 49.1814C65.8502 37.4057 86.0306 34.4004 106.116 32.9875C120.989 31.9419 137.717 31.5599 151.782 37.2601C155.734 38.8748 159.561 40.7841 163.229 42.9719Z" fill="url(#paint3_linear)"/>
<path d="M60.3902 61.4862C60.3902 61.4862 113.466 135.184 126.743 141.277C140.024 147.375 156.672 146.002 158.128 153.072C159.584 160.145 130.255 148.181 134.934 159.092C139.612 170.007 157.846 182.465 157.932 193.453C158.021 204.446 128.917 169.861 128.917 169.861C128.917 169.861 156.339 201.503 147.259 202.251C138.175 202.999 114.688 172.063 114.688 172.063C114.688 172.063 140.961 212.645 132.252 208.939C123.546 205.232 42.8046 108.135 30.3535 97.8605C17.9025 87.5896 60.3902 61.4862 60.3902 61.4862Z" fill="#E27B5A"/>
<path d="M214.787 79.3755C214.787 79.3755 154.251 146.547 140.407 151.087C126.563 155.622 110.163 152.356 107.966 159.213C105.773 166.074 136.187 157.543 130.382 167.856C124.581 178.166 105.143 188.46 103.894 199.375C102.65 210.286 135.228 179.246 135.228 179.246C135.228 179.246 104.628 207.555 113.574 209.337C122.525 211.123 149.138 183.064 149.138 183.064C149.138 183.064 118.735 220.395 127.781 217.707C136.828 215.018 227.338 127.756 240.797 118.97C254.259 110.184 214.787 79.3755 214.787 79.3755Z" fill="#FFCEB0"/>
<path d="M163.25 126.017C163.25 126.017 181.869 162.681 198.985 166.582C216.099 170.484 253.071 135.68 261.138 118.441C269.208 101.205 229.877 49.0451 221.46 41.5428C209.301 39.9992 154.618 93.3343 163.25 126.017Z" fill="#FB4C47"/>
<path d="M47.721 25.9135C47.721 25.9135 108.959 88.6769 106.057 104.973C103.159 121.273 79.7756 140.798 60.917 147.192C42.0585 153.583 0.829786 127.838 0.829786 109.063C-2.17659 77.1786 13.4547 44.0439 47.721 25.9135Z" fill="#128E5A"/>
<defs>
<linearGradient id="paint0_linear" x1="10.7218" y1="193.386" x2="25.7721" y2="245.542" gradientUnits="userSpaceOnUse">
<stop stop-color="#FFD0D0"/>
<stop offset="1" stop-color="#FFF8F8"/>
</linearGradient>
<linearGradient id="paint1_linear" x1="290.822" y1="53.8684" x2="122.949" y2="15.1803" gradientUnits="userSpaceOnUse">
<stop stop-color="#FFF8F8"/>
<stop offset="1" stop-color="#FFD0D0"/>
</linearGradient>
<linearGradient id="paint2_linear" x1="255.215" y1="55.716" x2="197.597" y2="31.1544" gradientUnits="userSpaceOnUse">
<stop stop-color="#FFD0D0"/>
<stop offset="1" stop-color="#FFF7F7"/>
</linearGradient>
<linearGradient id="paint3_linear" x1="242.219" y1="218.225" x2="10.5015" y2="84.3015" gradientUnits="userSpaceOnUse">
<stop stop-color="#FFCFCF"/>
<stop offset="1" stop-color="#FFF8F8"/>
</linearGradient>
</defs>
</svg>
